<svg width="20" height="20" viewBox="0 0 20 20" fill="none" xmlns="http://www.w3.org/2000/svg">
<path fill-rule="evenodd" clip-rule="evenodd" d="M4.70699 3.29298C4.51839 3.11082 4.26579 3.01003 4.00359 3.01231C3.74139 3.01458 3.49058 3.11975 3.30517 3.30516C3.11976 3.49057 3.01459 3.74138 3.01232 4.00358C3.01004 4.26578 3.11083 4.51838 3.29299 4.70698L8.58599 9.99998L3.29299 15.293C3.19748 15.3852 3.1213 15.4956 3.06889 15.6176C3.01648 15.7396 2.98889 15.8708 2.98774 16.0036C2.98659 16.1364 3.01189 16.268 3.06217 16.3909C3.11245 16.5138 3.1867 16.6255 3.28059 16.7194C3.37449 16.8133 3.48614 16.8875 3.60904 16.9378C3.73193 16.9881 3.86361 17.0134 3.99639 17.0122C4.12917 17.0111 4.26039 16.9835 4.38239 16.9311C4.5044 16.8787 4.61474 16.8025 4.70699 16.707L9.99999 11.414L15.293 16.707C15.4816 16.8891 15.7342 16.9899 15.9964 16.9877C16.2586 16.9854 16.5094 16.8802 16.6948 16.6948C16.8802 16.5094 16.9854 16.2586 16.9877 15.9964C16.9899 15.7342 16.8891 15.4816 16.707 15.293L11.414 9.99998L16.707 4.70698C16.8891 4.51838 16.9899 4.26578 16.9877 4.00358C16.9854 3.74138 16.8802 3.49057 16.6948 3.30516C16.5094 3.11975 16.2586 3.01458 15.9964 3.01231C15.7342 3.01003 15.4816 3.11082 15.293 3.29298L9.99999 8.58598L4.70699 3.29298Z" fill="#B1B8BE"/>
</svg>
