<svg width="22" height="18" viewBox="0 0 22 18" fill="none" xmlns="http://www.w3.org/2000/svg">
<path d="M11 0C12.142 0 13.2209 0.191176 14.2367 0.573529C15.2525 0.95 16.1662 1.47941 16.9776 2.16176C17.7891 2.84412 18.4622 3.64412 18.9972 4.56176C19.5321 5.47353 19.8868 6.46471 20.0611 7.53529H21.3594C21.5758 7.53529 21.7381 7.57941 21.8463 7.66765C21.9544 7.75 22.0055 7.86176 21.9995 8.00294C21.9935 8.13824 21.9334 8.28824 21.8192 8.45294L19.7996 11.2588C19.6494 11.4647 19.4781 11.5676 19.2857 11.5676C19.0934 11.5618 18.9251 11.4588 18.7808 11.2588L16.7612 8.44412C16.647 8.28529 16.5869 8.13824 16.5809 8.00294C16.5809 7.86176 16.635 7.75 16.7432 7.66765C16.8514 7.57941 17.0107 7.53529 17.221 7.53529H18.4923C18.324 6.67059 18.0145 5.87353 17.5637 5.14412C17.1129 4.40882 16.5539 3.77059 15.8867 3.22941C15.2195 2.68235 14.4712 2.25882 13.6417 1.95882C12.8122 1.65294 11.9317 1.5 11 1.5C9.87601 1.5 8.82113 1.72353 7.83538 2.17059C6.85564 2.61176 6.01415 3.21176 5.3109 3.97059C5.12457 4.17059 4.93824 4.27647 4.75191 4.28824C4.56558 4.29412 4.40028 4.24412 4.25603 4.13824C4.08773 4.02059 3.98254 3.85 3.94047 3.62647C3.89839 3.40294 3.97052 3.19118 4.15685 2.99118C4.99835 2.06765 6.01114 1.33824 7.19525 0.802941C8.37935 0.267647 9.6476 0 11 0ZM11 18C9.85797 18 8.77906 17.8088 7.76325 17.4265C6.74745 17.0441 5.83383 16.5118 5.02239 15.8294C4.21095 15.1471 3.53775 14.35 3.0028 13.4382C2.46785 12.5265 2.11322 11.5353 1.93892 10.4647H0.640611C0.424227 10.4647 0.261939 10.4235 0.153747 10.3412C0.0455545 10.2529 -0.00553614 10.1382 0.000474527 9.99706C0.0064852 9.85588 0.0665919 9.70588 0.180795 9.54706L2.20038 6.73235C2.35065 6.53235 2.52195 6.43235 2.71429 6.43235C2.90663 6.43235 3.07493 6.53235 3.21919 6.73235L5.23877 9.55588C5.35298 9.71471 5.41008 9.86471 5.41008 10.0059C5.41609 10.1412 5.365 10.2529 5.2568 10.3412C5.14861 10.4235 4.98933 10.4647 4.77896 10.4647H3.5077C3.676 11.3235 3.98555 12.1206 4.43635 12.8559C4.88715 13.5853 5.44614 14.2235 6.11333 14.7706C6.78051 15.3176 7.52884 15.7412 8.35831 16.0412C9.18778 16.3471 10.0683 16.5 11 16.5C12.124 16.5 13.1759 16.2765 14.1556 15.8294C15.1414 15.3882 15.9859 14.7853 16.6891 14.0206C16.8754 13.8265 17.0618 13.7265 17.2481 13.7206C17.4344 13.7088 17.5997 13.7529 17.744 13.8529C17.9123 13.9706 18.0175 14.1441 18.0595 14.3735C18.1016 14.5971 18.0295 14.8088 17.8431 15.0088C17.0017 15.9265 15.9889 16.6529 14.8048 17.1882C13.6207 17.7294 12.3524 18 11 18Z" fill="white"/>
</svg>
